<svg width="26" height="25" viewBox="0 0 26 25" fill="none" xmlns="http://www.w3.org/2000/svg"><path d="M16.6619 17.1462L13.5683 14.0526C13.4553 13.9395 13.3217 13.919 13.2497 13.919C13.1778 13.919 13.0442 13.9395 12.9311 14.0526L9.82723 17.1565C9.47778 17.5059 8.93306 18.0712 7.11389 18.0712L10.9269 21.874C11.5051 22.4514 12.2888 22.7757 13.1058 22.7757C13.9229 22.7757 14.7066 22.4514 15.2847 21.874L19.1081 18.0609C18.1728 18.0609 17.3917 17.8759 16.6619 17.1462ZM9.82723 7.84482L12.9311 10.9487C13.0133 11.0309 13.1367 11.0823 13.2497 11.0823C13.3628 11.0823 13.4861 11.0309 13.5683 10.9487L16.6414 7.87565C17.3711 7.1151 18.2036 6.94037 19.1389 6.94037L15.3156 3.12732C14.7374 2.54991 13.9538 2.22559 13.1367 2.22559C12.3196 2.22559 11.5359 2.54991 10.9578 3.12732L7.14473 6.9301C8.95361 6.9301 9.50861 7.52621 9.82723 7.84482Z" fill="#000"/><path d="M22.4792 10.2906L20.1667 7.96782H18.8717C18.3167 7.96782 17.7617 8.19393 17.3814 8.59477L14.2981 11.6781C14.0103 11.9659 13.63 12.1098 13.2497 12.1098C12.8582 12.1043 12.4833 11.9499 12.2014 11.6781L9.09752 8.56393C8.70696 8.17338 8.17252 7.94727 7.60724 7.94727H6.09641L3.7428 10.3112C3.16539 10.8893 2.84106 11.673 2.84106 12.49C2.84106 13.3071 3.16539 14.0908 3.7428 14.6689L6.09641 17.0328H7.61752C8.17252 17.0328 8.70696 16.8067 9.1078 16.4162L12.2117 13.3123C12.4995 13.0245 12.8797 12.8806 13.26 12.8806C13.6403 12.8806 14.0206 13.0245 14.3084 13.3123L17.402 16.4059C17.7925 16.7964 18.327 17.0225 18.8922 17.0225H20.1872L22.4997 14.6998C23.0796 14.1112 23.4029 13.3171 23.399 12.4909C23.3952 11.6648 23.0645 10.8737 22.4792 10.2906Z" fill="#000"/></svg>